<svg width="200" height="200" xmlns="http://www.w3.org/2000/svg" monica-translate-exclude-el="m">
 <g monica-translate-exclude-el="m">
  <title monica-translate-exclude-el="m">Layer 1</title>
  <!-- 水墨风背景 - 淡青透明底色 -->
  <rect id="svg_1" transform="rotate(-18.3936 98 97.9167)" stroke="#389f9f" stroke-width="1.5" fill="rgba(102, 178, 178, 0.35)" ry="5" rx="5" height="130" width="130" y="32.91667" x="33"/>
  <rect id="svg_2" transform="rotate(26.9205 98 98)" stroke="#389f9f" stroke-width="1.5" fill="rgba(102, 178, 178, 0.35)" ry="5" rx="5" height="130" width="130" y="33" x="33"/>
  <!-- 芯片主体 - 墨蓝色系 -->
  <rect id="svg_3" stroke="#3873b3" fill="#143259" ry="3" rx="3" height="70" width="70" y="65" x="65"/>
  <rect id="svg_4" fill="#1a4272" ry="2" rx="2" height="66" width="66" y="67" x="67"/>
  <rect id="svg_5" stroke-width="0.3" stroke="#2a5785" fill="#082540" height="56" width="56" y="72" x="72"/>
  <!-- 标识和文字 -->
  <text id="svg_6" text-anchor="middle" fill="#ffffff" font-size="6" font-family="Consolas, monospace" y="82" x="100" monica-translate-exclude-el="m">BLOG-509</text>
  <circle id="svg_7" fill="#f25c54" r="2" cy="72" cx="72"/>
  <text id="svg_8" text-anchor="middle" fill="#66d9e8" font-size="10" font-family="Consolas, monospace" y="95" x="100" monica-translate-exclude-el="m">0101</text>
  <text id="svg_9" text-anchor="middle" fill="#66d9e8" font-size="10" font-family="Consolas, monospace" y="108" x="100" monica-translate-exclude-el="m">0000</text>
  <text id="svg_10" text-anchor="middle" fill="#66d9e8" font-size="10" font-family="Consolas, monospace" y="121" x="100" monica-translate-exclude-el="m">1001</text>
  <!-- 引脚 - 铜锈绿色调 -->
  <rect id="svg_11" stroke-width="0.2" stroke="#a06633" fill="#cc9966" height="1.5" width="5" y="75" x="60"/>
  <rect id="svg_12" stroke-width="0.2" stroke="#a06633" fill="#cc9966" height="1.5" width="5" y="85" x="60"/>
  <rect id="svg_13" stroke-width="0.2" stroke="#a06633" fill="#cc9966" height="1.5" width="5" y="95" x="60"/>
  <rect id="svg_14" stroke-width="0.2" stroke="#a06633" fill="#cc9966" height="1.5" width="5" y="105" x="60"/>
  <rect id="svg_15" stroke-width="0.2" stroke="#a06633" fill="#cc9966" height="1.5" width="5" y="115" x="60"/>
  <rect id="svg_16" stroke-width="0.2" stroke="#a06633" fill="#cc9966" height="1.5" width="5" y="125" x="60"/>
  <rect id="svg_17" stroke-width="0.2" stroke="#a06633" fill="#cc9966" height="1.5" width="5" y="75" x="135"/>
  <rect id="svg_18" stroke-width="0.2" stroke="#a06633" fill="#cc9966" height="1.5" width="5" y="85" x="135"/>
  <rect id="svg_19" stroke-width="0.2" stroke="#a06633" fill="#cc9966" height="1.5" width="5" y="95" x="135"/>
  <rect id="svg_20" stroke-width="0.2" stroke="#a06633" fill="#cc9966" height="1.5" width="5" y="105" x="135"/>
  <rect id="svg_21" stroke-width="0.2" stroke="#a06633" fill="#cc9966" height="1.5" width="5" y="115" x="135"/>
  <rect id="svg_22" stroke-width="0.2" stroke="#a06633" fill="#cc9966" height="1.5" width="5" y="125" x="135"/>
  <rect id="svg_23" stroke-width="0.2" stroke="#a06633" fill="#cc9966" height="5" width="1.5" y="60" x="75"/>
  <rect id="svg_24" stroke-width="0.2" stroke="#a06633" fill="#cc9966" height="5" width="1.5" y="60" x="85"/>
  <rect id="svg_25" stroke-width="0.2" stroke="#a06633" fill="#cc9966" height="5" width="1.5" y="60" x="95"/>
  <rect id="svg_26" stroke-width="0.2" stroke="#a06633" fill="#cc9966" height="5" width="1.5" y="60" x="105"/>
  <rect id="svg_27" stroke-width="0.2" stroke="#a06633" fill="#cc9966" height="5" width="1.5" y="60" x="115"/>
  <rect id="svg_28" stroke-width="0.2" stroke="#a06633" fill="#cc9966" height="5" width="1.5" y="60" x="125"/>
  <rect id="svg_29" stroke-width="0.2" stroke="#a06633" fill="#cc9966" height="5" width="1.5" y="135" x="75"/>
  <rect id="svg_30" stroke-width="0.2" stroke="#a06633" fill="#cc9966" height="5" width="1.5" y="135" x="85"/>
  <rect id="svg_31" stroke-width="0.2" stroke="#a06633" fill="#cc9966" height="5" width="1.5" y="135" x="95"/>
  <rect id="svg_32" stroke-width="0.2" stroke="#a06633" fill="#cc9966" height="5" width="1.5" y="135" x="105"/>
  <rect id="svg_33" stroke-width="0.2" stroke="#a06633" fill="#cc9966" height="5" width="1.5" y="135" x="115"/>
  <rect id="svg_34" stroke-width="0.2" stroke="#a06633" fill="#cc9966" height="5" width="1.5" y="135" x="125"/>
  <!-- 电路连接线 - 朱砂红 -->
  <path stroke="#d94c45" id="svg_35" fill="none" stroke-width="1.2" d="m60,85.96774l-15,0m15,29.67742l-15,0"/>
  <path id="svg_36" fill="none" stroke-width="1.2" stroke="#d94c45" d="m140,85.64516l15,0m-15,30l15,0"/>
  <path id="svg_37" fill="none" stroke-width="1.2" stroke="#d94c45" d="m85.96774,60l0,-15m30,15l0,-15"/>
  <path id="svg_38" fill="none" stroke-width="1.2" stroke="#d94c45" d="m85.64516,140l0,15m30,-15l0,15"/>
  <!-- 版本号 - 青色 -->
  <text id="svg_40" text-anchor="end" fill="#389f9f" font-size="6" font-family="Consolas, monospace" y="163.29032" x="169.25805" monica-translate-exclude-el="m">v5.09</text>
 </g>

</svg>